<svg width="21" height="20" viewBox="0 0 21 20" fill="none" xmlns="http://www.w3.org/2000/svg">
<g clip-path="url(#clip0_2636_477)">
<g filter="url(#filter0_d_2636_477)">
<path d="M14.532 3.75C14.987 3.74962 15.4376 3.84008 15.8572 4.01609C16.2768 4.1921 16.6571 4.45011 16.9757 4.775C17.6322 5.44149 18.0002 6.33947 18.0002 7.275C18.0002 8.21053 17.6322 9.10851 16.9757 9.775L10.5007 16.3313L4.02571 9.775C3.3692 9.10851 3.00121 8.21053 3.00121 7.275C3.00121 6.33947 3.3692 5.44149 4.02571 4.775C4.34452 4.45035 4.72482 4.19247 5.14441 4.01643C5.56399 3.8404 6.01445 3.74973 6.46946 3.74973C6.92448 3.74973 7.37493 3.8404 7.79452 4.01643C8.2141 4.19247 8.59441 4.45035 8.91321 4.775L10.5007 6.4L12.082 4.7875C12.3996 4.45874 12.7803 4.19741 13.2013 4.01915C13.6222 3.84089 14.0748 3.74935 14.532 3.75ZM14.532 2.5C13.9105 2.49947 13.2951 2.62304 12.722 2.86344C12.1489 3.10384 11.6296 3.45625 11.1945 3.9L10.5007 4.6L9.80696 3.9C9.37131 3.45705 8.85184 3.10526 8.27883 2.86512C7.70583 2.62498 7.09075 2.50131 6.46946 2.50131C5.84818 2.50131 5.2331 2.62498 4.6601 2.86512C4.08709 3.10526 3.56762 3.45705 3.13196 3.9C2.24564 4.80227 1.74902 6.01648 1.74902 7.28125C1.74902 8.54603 2.24564 9.76024 3.13196 10.6625L10.5007 18.125L17.8695 10.6625C18.7558 9.76024 19.2524 8.54603 19.2524 7.28125C19.2524 6.01648 18.7558 4.80227 17.8695 3.9C17.4339 3.45682 16.9145 3.10478 16.3415 2.86441C15.7685 2.62405 15.1533 2.50017 14.532 2.5Z" fill="#BDBDBD"/>
<path d="M10.5011 5.95324L9.13675 4.55662L9.13618 4.55605C8.78829 4.20177 8.37329 3.92037 7.91542 3.72827C7.45755 3.53617 6.966 3.43723 6.46946 3.43723C5.97293 3.43723 5.48138 3.53617 5.02351 3.72827C4.56572 3.92033 4.15078 4.20167 3.80293 4.55586C3.08892 5.2808 2.68871 6.25748 2.68871 7.275C2.68871 8.29259 3.08898 9.26935 3.80308 9.9943L3.80337 9.99459L10.2784 16.5508L10.5007 16.776L10.7231 16.5508L17.1981 9.99459L17.1983 9.9943C17.9124 9.26935 18.3127 8.29259 18.3127 7.275C18.3127 6.25752 17.9125 5.28088 17.1986 4.55595C16.8509 4.20148 16.4359 3.91997 15.9781 3.72791C15.5203 3.53591 15.0288 3.43718 14.5324 3.4375C14.5322 3.4375 14.5319 3.4375 14.5317 3.4375L14.532 3.75M10.5011 5.95324L11.8581 4.56949L11.8588 4.5687L12.082 4.7875M10.5011 5.95324L11.8572 4.57036M10.5011 5.95324L11.8572 4.57036M14.532 3.75C14.0748 3.74935 13.6222 3.84089 13.2013 4.01915C12.7803 4.19741 12.3996 4.45874 12.082 4.7875M14.532 3.75C14.987 3.74962 15.4376 3.84008 15.8572 4.01609C16.2768 4.1921 16.6571 4.45011 16.9757 4.775L14.532 3.75ZM12.082 4.7875L11.8572 4.57036M12.082 4.7875L11.8572 4.57036M14.5317 2.8125L14.5319 2.8125C15.1118 2.81266 15.6858 2.92827 16.2206 3.15259C16.7554 3.37691 17.2401 3.70544 17.6466 4.11904C18.4755 4.96287 18.9399 6.09841 18.9399 7.28125C18.9399 8.46391 18.4756 9.59929 17.647 10.4431C17.6468 10.4432 17.6467 10.4434 17.6465 10.4435L10.5007 17.6802L3.3549 10.4435C3.35479 10.4434 3.35468 10.4433 3.35458 10.4432C2.52585 9.59939 2.06152 8.46396 2.06152 7.28125C2.06152 6.09846 2.52592 4.96295 3.35476 4.11913C3.76134 3.70575 4.24613 3.37744 4.78088 3.15333C5.31563 2.92923 5.88965 2.81381 6.46946 2.81381C7.04928 2.81381 7.62329 2.92923 8.15805 3.15333C8.6928 3.37744 9.17759 3.70575 9.58417 4.11913L9.585 4.11998L10.2788 4.81998L10.5007 5.04394L10.7227 4.81998L11.4164 4.11998L11.4176 4.11879C11.8236 3.70475 12.3082 3.37593 12.8429 3.15161C13.3777 2.9273 13.9518 2.81201 14.5317 2.8125Z" stroke="#252B42" stroke-width="0.625"/>
</g>
</g>
<defs>
<filter id="filter0_d_2636_477" x="-2.25098" y="2.5" width="25.5029" height="23.625" filterUnits="userSpaceOnUse" color-interpolation-filters="sRGB">
<feFlood flood-opacity="0" result="BackgroundImageFix"/>
<feColorMatrix in="SourceAlpha" type="matrix" values="0 0 0 0 0 0 0 0 0 0 0 0 0 0 0 0 0 0 127 0" result="hardAlpha"/>
<feOffset dy="4"/>
<feGaussianBlur stdDeviation="2"/>
<feComposite in2="hardAlpha" operator="out"/>
<feColorMatrix type="matrix" values="0 0 0 0 0 0 0 0 0 0 0 0 0 0 0 0 0 0 0.25 0"/>
<feBlend mode="normal" in2="BackgroundImageFix" result="effect1_dropShadow_2636_477"/>
<feBlend mode="normal" in="SourceGraphic" in2="effect1_dropShadow_2636_477" result="shape"/>
</filter>
<clipPath id="clip0_2636_477">
<rect width="20" height="20" fill="white" transform="translate(0.5)"/>
</clipPath>
</defs>
</svg>
